<svg width="32" height="32" viewBox="0 0 32 32" fill="none" xmlns="http://www.w3.org/2000/svg">
<path d="M15.8877 14.1875L2.3125 16.0625L7.4074 31.2875C7.55508 31.6999 8.04734 32 8.61344 32H23.3813C23.9473 32 24.4396 31.6999 24.5873 31.2875L29.6824 16.0625L15.8877 14.1875ZM13.536 11.375C14.2163 11.375 14.7667 10.9557 14.7667 10.4375V0.9375C14.7667 0.419312 14.2163 0 13.536 0C12.8558 0 12.3054 0.419312 12.3054 0.9375V10.4375C12.3054 10.9557 12.8558 11.375 13.536 11.375ZM18.4587 11.375C19.1389 11.375 19.6893 10.9557 19.6893 10.4375V0.9375C19.6893 0.419312 19.1389 0 18.4587 0C17.7784 0 17.228 0.419312 17.228 0.9375V10.4375C17.228 10.9557 17.7784 11.375 18.4587 11.375Z" fill="url(#paint0_linear_1_151)"/>
<path d="M31.3092 11.4687C30.7185 11.2437 29.98 11.4312 29.6603 11.8999L28.1587 14.1874L24.4176 9.91243C24.1715 9.64994 23.8022 9.5 23.3839 9.5H8.61606C8.19764 9.5 7.82844 9.64994 7.58231 9.91243L3.84113 14.1874L2.33973 11.8999C2.01976 11.4312 1.28137 11.2437 0.690738 11.4687C0.0754119 11.7125 -0.170801 12.275 0.124556 12.7249L2.31512 16.0624H29.685L31.8753 12.7249C32.1709 12.2749 31.9245 11.7125 31.3092 11.4687ZM16 20.7498C13.9642 20.7498 12.308 22.0114 12.308 23.5623C12.308 25.1131 13.9642 26.3747 16 26.3747C18.0358 26.3747 19.6919 25.1131 19.6919 23.5623C19.6919 22.0114 18.0358 20.7498 16 20.7498Z" fill="url(#paint1_linear_1_151)"/>
<defs>
<linearGradient id="paint0_linear_1_151" x1="15.9974" y1="32" x2="15.9974" y2="0" gradientUnits="userSpaceOnUse">
<stop stop-color="#FD3A84"/>
<stop offset="1" stop-color="#FFA68D"/>
</linearGradient>
<linearGradient id="paint1_linear_1_151" x1="16" y1="26.3747" x2="16" y2="9.5" gradientUnits="userSpaceOnUse">
<stop stop-color="#FFC2CC"/>
<stop offset="1" stop-color="#FFF2F4"/>
</linearGradient>
</defs>
</svg>
