<svg width="52" height="44" viewBox="0 0 52 44" fill="none" xmlns="http://www.w3.org/2000/svg">
<path d="M37.3988 37.0977V14.6665H3.39893V37.0977C3.39893 38.0508 4.15999 38.8232 5.09892 38.8232H35.6988C36.6377 38.8232 37.3988 38.0508 37.3988 37.0977Z" fill="#289BC3"/>
<path d="M13.6015 33.6471H10.2015C7.38486 33.6471 5.10156 35.9646 5.10156 38.8235C5.10156 41.6824 7.38486 43.9999 10.2015 43.9999H13.6015C16.4182 43.9999 18.7015 41.6824 18.7015 38.8235C18.7015 35.9646 16.4182 33.6471 13.6015 33.6471Z" fill="#32283C"/>
<path d="M44.1987 33.6465H40.7987C37.982 33.6465 35.6987 35.9642 35.6987 38.8232C35.6987 41.6822 37.982 43.9999 40.7987 43.9999H44.1987C47.0153 43.9999 49.2986 41.6822 49.2986 38.8232C49.2986 35.9642 47.0153 33.6465 44.1987 33.6465Z" fill="#32283C"/>
<path d="M40.7987 43.9999C43.6153 43.9999 45.8987 41.6822 45.8987 38.8232C45.8987 35.9642 43.6153 33.6465 40.7987 33.6465C37.9821 33.6465 35.6987 35.9642 35.6987 38.8232C35.6987 41.6822 37.9821 43.9999 40.7987 43.9999Z" fill="#555A6E"/>
<path d="M40.7977 40.549C41.7365 40.549 42.4977 39.7765 42.4977 38.8235C42.4977 37.8706 41.7365 37.0981 40.7977 37.0981C39.8588 37.0981 39.0977 37.8706 39.0977 38.8235C39.0977 39.7765 39.8588 40.549 40.7977 40.549Z" fill="#E6E6EB"/>
<path d="M30.601 33.6465H27.2011C24.3844 33.6465 22.1011 35.9642 22.1011 38.8232C22.1011 41.6822 24.3844 43.9999 27.2011 43.9999H30.601C33.4177 43.9999 35.701 41.6822 35.701 38.8232C35.701 35.9642 33.4177 33.6465 30.601 33.6465Z" fill="#32283C"/>
<path d="M47.6022 16.3922H22.1023C21.1634 16.3922 20.4023 17.1647 20.4023 18.1177V19.8431H47.6022C48.5411 19.8431 49.3022 19.0707 49.3022 18.1177C49.3022 17.1647 48.5411 16.3922 47.6022 16.3922Z" fill="#A5C3DC"/>
<path d="M30.6023 16.3922H22.1023C21.1634 16.3922 20.4023 17.1647 20.4023 18.1177V19.8431H30.6023C31.5412 19.8431 32.3023 19.0707 32.3023 18.1177C32.3023 17.1647 31.5412 16.3922 30.6023 16.3922Z" fill="#D7E6F0"/>
<path d="M20.4023 19.8432H47.6022V28.4706H20.4023V19.8432Z" fill="#463C4B"/>
<path d="M20.4023 19.8432H30.6023V28.4706H20.4023V19.8432Z" fill="#555A6E"/>
<path d="M49.3022 38.8234H22.1023C21.1634 38.8234 20.4023 38.051 20.4023 37.0979V28.4704H47.6022C49.48 28.4704 51.0022 30.0155 51.0022 31.9214V37.0979C51.0022 38.051 50.2411 38.8234 49.3022 38.8234Z" fill="#A5C3DC"/>
<path d="M32.3023 38.8234H22.1023C21.1634 38.8234 20.4023 38.051 20.4023 37.0979V28.4704H30.6023C32.4801 28.4704 34.0023 30.0155 34.0023 31.9214V37.0979C34.0023 38.051 33.2412 38.8234 32.3023 38.8234Z" fill="#D7E6F0"/>
<path d="M38.1072 31.9213H46.8905C48.2205 31.9213 49.2988 33.0158 49.2988 34.3659C49.2988 35.716 48.2205 36.8106 46.8904 36.8106H38.1071C36.7771 36.8106 35.6987 35.7161 35.6987 34.3659C35.6988 33.0158 36.7771 31.9213 38.1072 31.9213Z" fill="#555A6E"/>
<path d="M38.1109 35.6601C38.8151 35.6601 39.3859 35.0808 39.3859 34.3661C39.3859 33.6514 38.8151 33.072 38.1109 33.072C37.4068 33.072 36.8359 33.6514 36.8359 34.3661C36.8359 35.0808 37.4068 35.6601 38.1109 35.6601Z" fill="#00D2D2"/>
<path d="M46.8883 35.6601C47.5924 35.6601 48.1633 35.0808 48.1633 34.3661C48.1633 33.6514 47.5924 33.072 46.8883 33.072C46.1841 33.072 45.6133 33.6514 45.6133 34.3661C45.6133 35.0808 46.1841 35.6601 46.8883 35.6601Z" fill="#00D2D2"/>
<path d="M16.1497 0H11.0497C10.5803 0 10.1997 0.386296 10.1997 0.862749C10.1997 1.3392 10.5803 1.7255 11.0497 1.7255C14.3305 1.7255 16.9997 4.43475 16.9997 7.76474C16.9997 8.24119 17.3803 8.62749 17.8497 8.62749H22.9497C23.4191 8.62749 23.7997 8.24119 23.7997 7.76474C23.7997 3.48324 20.3679 0 16.1497 0Z" fill="#A5C3DC"/>
<path d="M29.7494 0H24.6495C20.4313 0 16.9995 3.48324 16.9995 7.76474C16.9995 8.24119 17.3801 8.62749 17.8495 8.62749H22.9495C23.4189 8.62749 23.7995 8.24119 23.7995 7.76474C23.7995 4.43475 26.4687 1.7255 29.7494 1.7255C30.2188 1.7255 30.5994 1.3392 30.5994 0.862749C30.5994 0.386296 30.2188 0 29.7494 0Z" fill="#A5C3DC"/>
<path d="M33.1497 0H28.0497C27.5803 0 27.1997 0.386296 27.1997 0.862749C27.1997 1.3392 27.5803 1.7255 28.0497 1.7255C29.4558 1.7255 30.5997 2.88654 30.5997 4.31375C30.5997 5.74095 29.4558 6.90199 28.0497 6.90199C27.5803 6.90199 27.1997 7.28829 27.1997 7.76474C27.1997 8.24119 27.5803 8.62749 28.0497 8.62749H33.1497C35.4931 8.62749 37.3997 6.69234 37.3997 4.31375C37.3997 1.93515 35.4931 0 33.1497 0Z" fill="#A5C3DC"/>
<path d="M12.7489 6.90199C11.3428 6.90199 10.1989 5.74095 10.1989 4.31375C10.1989 2.88654 11.3428 1.7255 12.7489 1.7255C13.2183 1.7255 13.5989 1.3392 13.5989 0.862749C13.5989 0.386296 13.2183 0 12.7489 0H7.64891C5.30547 0 3.39893 1.93515 3.39893 4.31375C3.39893 6.69234 5.30547 8.62749 7.64891 8.62749H12.7489C13.2183 8.62749 13.5989 8.24119 13.5989 7.76474C13.5989 7.28829 13.2183 6.90199 12.7489 6.90199Z" fill="#A5C3DC"/>
<path d="M39.0998 8.62769H1.69999C0.761065 8.62769 0 9.40016 0 10.3532V12.9414C0 13.8943 0.761065 14.6668 1.69999 14.6668H39.0998C40.0387 14.6668 40.7998 13.8943 40.7998 12.9414V10.3532C40.7998 9.40016 40.0387 8.62769 39.0998 8.62769Z" fill="#289BC3"/>
<path d="M18.6989 38.8236H5.09892C4.15999 38.8236 3.39893 38.0511 3.39893 37.0981V19.8432H20.3989V37.0981C20.3989 38.0511 19.6378 38.8236 18.6989 38.8236Z" fill="#00D2D2"/>
<path d="M20.3999 8.62769H1.69999C0.761065 8.62769 0 9.40016 0 10.3532V12.9414C0 13.8943 0.761065 14.6668 1.69999 14.6668H20.3999C21.3388 14.6668 22.0999 13.8943 22.0999 12.9414V10.3532C22.0999 9.40016 21.3388 8.62769 20.3999 8.62769Z" fill="#00D2D2"/>
<path d="M11.8978 12.9413C11.8978 13.8942 12.6589 14.6667 13.5978 14.6667H8.49784C7.55892 14.6667 6.79785 13.8942 6.79785 12.9413V10.3531C6.79785 9.40014 7.55892 8.62769 8.49784 8.62769H13.5978C12.6589 8.62769 11.8978 9.40014 11.8978 10.3531V12.9413Z" fill="#D7E6F0"/>
<path d="M28.9031 12.9414C28.9031 13.8944 28.1421 14.6669 27.2031 14.6669H32.3031C33.242 14.6669 34.0031 13.8944 34.0031 12.9414V10.3532C34.0031 9.40016 33.242 8.62769 32.3031 8.62769H27.2031C28.1421 8.62769 28.9031 9.40016 28.9031 10.3532V12.9414Z" fill="#A5C3DC"/>
<path d="M28.0529 8.62749H17.0029V7.76474C17.0029 3.48324 20.4347 0 24.6529 0H28.0529C30.3963 0 32.3029 1.93515 32.3029 4.31375C32.3029 6.69234 30.3963 8.62749 28.0529 8.62749ZM18.7635 6.90199H28.0529C29.459 6.90199 30.6029 5.74095 30.6029 4.31375C30.6029 2.88654 29.459 1.7255 28.0529 1.7255H24.6529C21.6606 1.7255 19.1771 3.97911 18.7635 6.90199Z" fill="#D7E6F0"/>
<path d="M18.6989 8.62749H7.64891C5.30547 8.62749 3.39893 6.69234 3.39893 4.31375C3.39893 1.93515 5.30547 0 7.64891 0H11.0489C15.2671 0 18.6989 3.48324 18.6989 7.76474V8.62749ZM7.64891 1.7255C6.2428 1.7255 5.09892 2.88654 5.09892 4.31375C5.09892 5.74095 6.2428 6.90199 7.64891 6.90199H16.9383C16.5246 3.97911 14.0411 1.7255 11.0489 1.7255H7.64891Z" fill="#D7E6F0"/>
<path d="M27.201 43.9999C30.0177 43.9999 32.301 41.6822 32.301 38.8232C32.301 35.9642 30.0177 33.6465 27.201 33.6465C24.3844 33.6465 22.1011 35.9642 22.1011 38.8232C22.1011 41.6822 24.3844 43.9999 27.201 43.9999Z" fill="#555A6E"/>
<path d="M27.2 40.549C28.1389 40.549 28.9 39.7765 28.9 38.8235C28.9 37.8706 28.1389 37.0981 27.2 37.0981C26.2611 37.0981 25.5 37.8706 25.5 38.8235C25.5 39.7765 26.2611 40.549 27.2 40.549Z" fill="#E6E6EB"/>
<path d="M10.2015 43.9999C13.0182 43.9999 15.3015 41.6824 15.3015 38.8235C15.3015 35.9647 13.0182 33.6471 10.2015 33.6471C7.3849 33.6471 5.10156 35.9647 5.10156 38.8235C5.10156 41.6824 7.3849 43.9999 10.2015 43.9999Z" fill="#555A6E"/>
<path d="M10.1966 40.549C11.1355 40.549 11.8966 39.7765 11.8966 38.8235C11.8966 37.8706 11.1355 37.0981 10.1966 37.0981C9.2577 37.0981 8.49658 37.8706 8.49658 38.8235C8.49658 39.7765 9.2577 40.549 10.1966 40.549Z" fill="#E6E6EB"/>
</svg>
